<?xml version="1.0" encoding="UTF-8" standalone="no"?>
<svg
   xmlns:dc="http://purl.org/dc/elements/1.1/"
   xmlns:cc="http://creativecommons.org/ns#"
   xmlns:rdf="http://www.w3.org/1999/02/22-rdf-syntax-ns#"
   xmlns:svg="http://www.w3.org/2000/svg"
   xmlns="http://www.w3.org/2000/svg"
   xmlns:xlink="http://www.w3.org/1999/xlink"
   xmlns:sodipodi="http://sodipodi.sourceforge.net/DTD/sodipodi-0.dtd"
   xmlns:inkscape="http://www.inkscape.org/namespaces/inkscape"
   width="250"
   height="244"
   viewBox="0 0 250.00001 244"
   id="svg2"
   version="1.1"
   inkscape:version="1.0.1 (3bc2e813f5, 2020-09-07)"
   sodipodi:docname="flaphero-repo.svg">
  <defs
     id="defs4">
    <color-profile
       name="sRGB-IEC61966-2.1"
       xlink:href="C:\WINDOWS\system32\spool\drivers\color\sRGB Color Space Profile.icm"
       id="color-profile2" />
    <linearGradient
       id="linearGradient4169"
       inkscape:collect="always">
      <stop
         id="stop4171"
         offset="0"
         style="stop-color:#fdfda0;stop-opacity:1;" />
      <stop
         style="stop-color:#f5d334;stop-opacity:1"
         offset="1"
         id="stop4173" />
    </linearGradient>
    <linearGradient
       inkscape:collect="always"
       xlink:href="#linearGradient4169"
       id="linearGradient5115"
       gradientUnits="userSpaceOnUse"
       gradientTransform="translate(-246,419)"
       x1="334.28473"
       y1="467.30588"
       x2="334.28473"
       y2="476.60049" />
    <linearGradient
       inkscape:collect="always"
       xlink:href="#linearGradient4169"
       id="linearGradient5148"
       gradientUnits="userSpaceOnUse"
       gradientTransform="translate(-246,419)"
       x1="334.28473"
       y1="471.99048"
       x2="334.28473"
       y2="479.69409" />
    <linearGradient
       inkscape:collect="always"
       xlink:href="#linearGradient4169"
       id="linearGradient4320"
       gradientUnits="userSpaceOnUse"
       gradientTransform="translate(-327,-6)"
       x1="334.28473"
       y1="467.30588"
       x2="334.28473"
       y2="476.60049" />
    <linearGradient
       inkscape:collect="always"
       xlink:href="#linearGradient4169"
       id="linearGradient4322"
       gradientUnits="userSpaceOnUse"
       gradientTransform="translate(-327,-6)"
       x1="340.1875"
       y1="471.67471"
       x2="340.1875"
       y2="480.56305" />
    <linearGradient
       inkscape:collect="always"
       xlink:href="#linearGradient4169"
       id="linearGradient918"
       gradientUnits="userSpaceOnUse"
       gradientTransform="translate(-218,511)"
       x1="334.28473"
       y1="471.99048"
       x2="334.28473"
       y2="479.69409" />
    <linearGradient
       inkscape:collect="always"
       xlink:href="#linearGradient4169"
       id="linearGradient920"
       gradientUnits="userSpaceOnUse"
       gradientTransform="translate(-218,511)"
       x1="334.28473"
       y1="467.30588"
       x2="334.28473"
       y2="476.60049" />
    <linearGradient
       inkscape:collect="always"
       xlink:href="#linearGradient4169"
       id="linearGradient940"
       gradientUnits="userSpaceOnUse"
       gradientTransform="translate(-218,511)"
       x1="334.28473"
       y1="467.30588"
       x2="334.28473"
       y2="476.60049" />
    <linearGradient
       inkscape:collect="always"
       xlink:href="#linearGradient4169"
       id="linearGradient942"
       gradientUnits="userSpaceOnUse"
       gradientTransform="translate(-218,511)"
       x1="334.28473"
       y1="471.99048"
       x2="334.28473"
       y2="479.69409" />
  </defs>
  <sodipodi:namedview
     id="base"
     pagecolor="#ffffff"
     bordercolor="#94c7e3"
     borderopacity="0.51372549"
     inkscape:pageopacity="0.0"
     inkscape:pageshadow="2"
     inkscape:zoom="2"
     inkscape:cx="212.84696"
     inkscape:cy="145.99579"
     inkscape:document-units="px"
     inkscape:current-layer="layer1"
     showgrid="false"
     inkscape:window-width="1805"
     inkscape:window-height="967"
     inkscape:window-x="349"
     inkscape:window-y="101"
     inkscape:window-maximized="0"
     showguides="false"
     units="px"
     inkscape:showpageshadow="false"
     showborder="true"
     inkscape:document-rotation="0">
    <inkscape:grid
       type="xygrid"
       id="grid4144"
       spacingx="28.000001"
       spacingy="24" />
  </sodipodi:namedview>
  <metadata
     id="metadata7">
    <rdf:RDF>
      <cc:Work
         rdf:about="">
        <dc:format>image/svg+xml</dc:format>
        <dc:type
           rdf:resource="http://purl.org/dc/dcmitype/StillImage" />
        <dc:title></dc:title>
      </cc:Work>
    </rdf:RDF>
  </metadata>
  <g
     inkscape:groupmode="layer"
     id="layer2"
     inkscape:label="Lines"
     style="display:inline;opacity:1"
     transform="translate(0,-353)">
    <path
       style="fill:none;fill-rule:evenodd;stroke:#d6d6d6;stroke-width:2;stroke-linecap:butt;stroke-linejoin:miter;stroke-opacity:1"
       d="m 65,423.00002 v 35 c 0,2.5223 1.75084,4 4,4 h 10"
       id="path4217"
       inkscape:connector-curvature="0"
       sodipodi:nodetypes="cccc" />
    <path
       style="fill:none;fill-rule:evenodd;stroke:#d6d6d6;stroke-width:2;stroke-linecap:butt;stroke-linejoin:miter;stroke-opacity:1"
       d="m 65,434.00002 c 0,2.52229 1.75084,4 4,4 h 10"
       id="path4992"
       inkscape:connector-curvature="0"
       sodipodi:nodetypes="ccc" />
    <path
       sodipodi:nodetypes="ccc"
       inkscape:connector-curvature="0"
       id="path4966"
       d="m 93,482.00002 c 0,2.52229 1.75084,4 4,4 h 10"
       style="fill:none;fill-rule:evenodd;stroke:#d6d6d6;stroke-width:2;stroke-linecap:butt;stroke-linejoin:miter;stroke-opacity:1" />
    <path
       style="fill:none;fill-rule:evenodd;stroke:#d6d6d6;stroke-width:2;stroke-linecap:butt;stroke-linejoin:miter;stroke-opacity:1"
       d="m 93,471.00002 v 107 c 0,2.5223 1.75084,4 4,4 h 10"
       id="path4993"
       inkscape:connector-curvature="0"
       sodipodi:nodetypes="cccc" />
    <path
       sodipodi:nodetypes="ccc"
       inkscape:connector-curvature="0"
       id="path4995"
       d="m 93,554.00002 c 0,2.52229 1.75084,4 4,4 h 10"
       style="fill:none;fill-rule:evenodd;stroke:#d6d6d6;stroke-width:2;stroke-linecap:butt;stroke-linejoin:miter;stroke-opacity:1" />
    <path
       sodipodi:nodetypes="cccc"
       inkscape:connector-curvature="0"
       id="path5033"
       d="m 37,399.00002 v 11 c 0,2.5223 1.75084,4 4,4 h 10"
       style="fill:none;fill-rule:evenodd;stroke:#d6d6d6;stroke-width:2;stroke-linecap:butt;stroke-linejoin:miter;stroke-opacity:1" />
    <path
       sodipodi:nodetypes="ccc"
       inkscape:connector-curvature="0"
       id="path944"
       d="m 93,506.00002 c 0,2.52229 1.75084,4 4,4 h 10"
       style="fill:none;fill-rule:evenodd;stroke:#d6d6d6;stroke-width:2;stroke-linecap:butt;stroke-linejoin:miter;stroke-opacity:1" />
    <path
       sodipodi:nodetypes="ccc"
       inkscape:connector-curvature="0"
       id="path946"
       d="m 93,530.00002 c 0,2.52229 1.75084,4 4,4 h 10"
       style="fill:none;fill-rule:evenodd;stroke:#d6d6d6;stroke-width:2;stroke-linecap:butt;stroke-linejoin:miter;stroke-opacity:1" />
  </g>
  <g
     inkscape:label="Layer 1"
     inkscape:groupmode="layer"
     id="layer1"
     transform="translate(0,-808.36218)"
     style="display:inline">
    <g
       id="g924"
       transform="translate(0,28)">
      <path
         sodipodi:nodetypes="ccccccc"
         inkscape:connector-curvature="0"
         id="path914"
         d="m 111.5,976.8622 c 0,-0.5 0.5,-1 1,-1 h 5 c 0.61314,-0.0101 1,0.50686 1,1 v 2 c 0.27978,3.95911 -4.85679,3.8564 -6.99999,1 z"
         style="opacity:1;fill:url(#linearGradient920);fill-opacity:1;stroke:#dcbf6a;stroke-width:1;stroke-linejoin:round;stroke-miterlimit:4;stroke-dasharray:none;stroke-opacity:1" />
      <path
         style="opacity:1;fill:url(#linearGradient918);fill-opacity:1;stroke:#dcbf6a;stroke-width:1;stroke-linejoin:round;stroke-miterlimit:4;stroke-dasharray:none;stroke-opacity:1"
         d="m 111.5,979.86218 c 0,-0.5 0.5,-1 1,-1 l 16,2e-5 c 0.58677,0 1,0.42085 1,1 l 5e-5,10 c 0.0178,0.55171 -0.43366,1 -1.00005,1 h -16 c -0.50733,0 -1,-0.44383 -1,-1 z"
         id="path916"
         inkscape:connector-curvature="0"
         sodipodi:nodetypes="ccccccccc" />
    </g>
    <g
       aria-label="plywood"
       id="text4140"
       style="font-style:normal;font-variant:normal;font-weight:normal;font-stretch:normal;line-height:0%;font-family:'Liberation Sans';-inkscape-font-specification:'Liberation Sans';letter-spacing:0px;word-spacing:0px;fill:#4d4d4d;fill-opacity:1;stroke:none;stroke-width:1px;stroke-linecap:butt;stroke-linejoin:miter;stroke-opacity:1">
      <path
         d="m 63.712402,844.36316 q 0,4.14551 -2.915039,4.14551 -1.831054,0 -2.460937,-1.37696 h -0.03662 q 0.0293,0.0586 0.0293,1.24512 v 3.09815 h -1.31836 v -9.41895 q 0,-1.22314 -0.04395,-1.61865 h 1.274414 q 0.0073,0.0293 0.02197,0.2124 0.01465,0.17578 0.0293,0.54932 0.02197,0.37353 0.02197,0.51269 h 0.0293 q 0.351562,-0.73242 0.930176,-1.06933 0.578613,-0.34424 1.523437,-0.34424 1.464844,0 2.189942,0.98144 0.725097,0.98145 0.725097,3.0835 z m -1.384277,0.0293 q 0,-1.65528 -0.446777,-2.36573 -0.446778,-0.71045 -1.420899,-0.71045 -0.783691,0 -1.230469,0.32959 -0.439453,0.32959 -0.673828,1.03272 -0.22705,0.6958 -0.22705,1.81641 0,1.56005 0.498046,2.2998 0.498047,0.73975 1.618653,0.73975 0.981445,0 1.428222,-0.71778 0.454102,-0.7251 0.454102,-2.42431 z"
         style="font-size:15px;line-height:1.25"
         id="path948" />
      <path
         d="m 65.353027,848.36218 v -10.86914 h 1.31836 v 10.86914 z"
         style="font-size:15px;line-height:1.25"
         id="path950" />
      <path
         d="m 69.07373,851.47498 q -0.541992,0 -0.908203,-0.0806 v -0.98877 q 0.278321,0.0439 0.615235,0.0439 1.230468,0 1.948242,-1.80908 l 0.124512,-0.31494 -3.14209,-7.88818 h 1.40625 l 1.669922,4.37988 q 0.03662,0.10254 0.08789,0.24902 0.05127,0.13916 0.32959,0.95215 0.27832,0.81299 0.300293,0.90821 l 0.512695,-1.44288 1.73584,-5.04638 h 1.391602 l -3.046875,7.9248 q -0.490723,1.26709 -0.915528,1.88233 -0.424804,0.62256 -0.944824,0.92285 -0.512695,0.30762 -1.164551,0.30762 z"
         style="font-size:15px;line-height:1.25"
         id="path952" />
      <path
         d="m 83.773437,848.36218 h -1.530761 l -1.384278,-5.60302 -0.263671,-1.2378 q -0.06592,0.32959 -0.205079,0.95215 -0.13916,0.61524 -1.49414,5.88867 H 77.37207 l -2.219238,-7.9248 h 1.303711 l 1.340332,5.3833 q 0.05127,0.17578 0.314941,1.45019 l 0.124512,-0.54199 1.655274,-6.2915 h 1.413574 l 1.384277,5.44189 0.336914,1.3916 0.227051,-1.01806 1.501465,-5.81543 h 1.289062 z"
         style="font-size:15px;line-height:1.25"
         id="path954" />
      <path
         d="m 93.719727,844.39246 q 0,2.08007 -0.915528,3.09814 -0.915527,1.01807 -2.658691,1.01807 -1.73584,0 -2.622071,-1.05469 -0.88623,-1.06201 -0.88623,-3.06152 0,-4.10157 3.552246,-4.10157 1.816406,0 2.67334,1.00342 0.856934,0.9961 0.856934,3.09815 z m -1.384278,0 q 0,-1.64063 -0.490722,-2.38038 -0.483399,-0.74707 -1.633301,-0.74707 -1.157227,0 -1.677246,0.76172 -0.512696,0.7544 -0.512696,2.36573 0,1.56738 0.505371,2.35839 0.512696,0.7837 1.604004,0.7837 1.186524,0 1.691895,-0.76172 0.512695,-0.76172 0.512695,-2.38037 z"
         style="font-size:15px;line-height:1.25"
         id="path956" />
      <path
         d="m 102.06201,844.39246 q 0,2.08007 -0.91553,3.09814 -0.91552,1.01807 -2.658687,1.01807 -1.73584,0 -2.62207,-1.05469 -0.886231,-1.06201 -0.886231,-3.06152 0,-4.10157 3.552246,-4.10157 1.816402,0 2.673342,1.00342 0.85693,0.9961 0.85693,3.09815 z m -1.38428,0 q 0,-1.64063 -0.49072,-2.38038 -0.483397,-0.74707 -1.633299,-0.74707 -1.157227,0 -1.677246,0.76172 -0.512695,0.7544 -0.512695,2.36573 0,1.56738 0.505371,2.35839 0.512695,0.7837 1.604004,0.7837 1.186523,0 1.691895,-0.76172 0.51269,-0.76172 0.51269,-2.38037 z"
         style="font-size:15px;line-height:1.25"
         id="path958" />
      <path
         d="m 108.70508,847.08777 q -0.36621,0.76172 -0.97412,1.09131 -0.60059,0.32959 -1.49414,0.32959 -1.50147,0 -2.21192,-1.01075 -0.70312,-1.01074 -0.70312,-3.06152 0,-4.14551 2.91504,-4.14551 0.90088,0 1.50146,0.32959 0.60059,0.32959 0.9668,1.04737 h 0.0147 l -0.0147,-0.88623 v -3.28858 h 1.31836 v 9.23584 q 0,1.23779 0.0439,1.6333 h -1.25976 q -0.022,-0.11718 -0.0513,-0.54199 -0.022,-0.4248 -0.022,-0.73242 z m -3.99903,-2.69531 q 0,1.66259 0.43946,2.38037 0.43945,0.71777 1.42822,0.71777 1.12061,0 1.62598,-0.77637 0.50537,-0.77636 0.50537,-2.40966 0,-1.57471 -0.50537,-2.30713 -0.50537,-0.73243 -1.61133,-0.73243 -0.99609,0 -1.44287,0.73975 -0.43946,0.73242 -0.43946,2.3877 z"
         style="font-size:15px;line-height:1.25"
         id="path960" />
    </g>
    <g
       id="g4577"
       transform="translate(25,377)">
      <path
         sodipodi:nodetypes="cccccccccccc"
         inkscape:connector-curvature="0"
         id="rect4146"
         d="m 2.5,459.8622 c 0,-0.5 0.5,-1 1,-1 h 5 c 0.61314,-0.0101 1,0.50686 1,1 v 2 h 10 c 0.58677,0 1,0.42085 1,1 l 5e-5,10 c 0.0178,0.55171 -0.43366,1 -1.00005,1 h -16 c -0.50733,0 -1,-0.44383 -1,-1 z"
         style="opacity:1;fill:url(#linearGradient4320);fill-opacity:1;stroke:#dcbf6a;stroke-width:1;stroke-linejoin:round;stroke-miterlimit:4;stroke-dasharray:none;stroke-opacity:1" />
      <path
         style="opacity:1;fill:url(#linearGradient4322);fill-opacity:1;stroke:#dcbf6a;stroke-width:1;stroke-linejoin:round;stroke-miterlimit:4;stroke-dasharray:none;stroke-opacity:1"
         d="m 7.35855,465.8622 c 0.2858,-0.5 1.0716,-1 1.5716,-1 h 16.00004 c 0.58677,0 0.75944,0.42085 0.4284,1 l -4.00114,7 c -0.29756,0.55171 -1.00526,1 -1.57165,1 H 3.78576 c -0.50733,0 -0.74631,-0.44383 -0.4284,-1 z"
         id="path4149"
         inkscape:connector-curvature="0"
         sodipodi:nodetypes="ccccccccc" />
    </g>
    <g
       aria-label="repos"
       id="text4205"
       style="font-style:normal;font-variant:normal;font-weight:normal;font-stretch:normal;line-height:0%;font-family:'Liberation Sans';-inkscape-font-specification:'Liberation Sans';letter-spacing:0px;word-spacing:0px;fill:#4d4d4d;fill-opacity:1;stroke:none;stroke-width:1px;stroke-linecap:butt;stroke-linejoin:miter;stroke-opacity:1">
      <path
         d="m 85.040039,872.36218 v -6.0791 q 0,-0.83496 -0.04394,-1.8457 h 1.245117 q 0.05859,1.34765 0.05859,1.61865 h 0.0293 q 0.314941,-1.01807 0.725097,-1.3916 0.410156,-0.37354 1.157227,-0.37354 0.263672,0 0.534668,0.0733 v 1.20849 q -0.263672,-0.0732 -0.703125,-0.0732 -0.820313,0 -1.252442,0.71045 -0.432129,0.70312 -0.432129,2.02148 v 4.13086 z"
         style="font-size:15px;line-height:1.25"
         id="path963" />
      <path
         d="m 91.016602,868.6781 q 0,1.36231 0.563964,2.10205 0.563965,0.73975 1.64795,0.73975 0.856933,0 1.369629,-0.34424 0.520019,-0.34424 0.703125,-0.87158 l 1.157226,0.32959 q -0.710449,1.875 -3.22998,1.875 -1.757813,0 -2.680664,-1.04737 -0.915528,-1.04736 -0.915528,-3.11279 0,-1.96289 0.915528,-3.01025 0.922851,-1.04737 2.629394,-1.04737 3.493652,0 3.493652,4.21143 v 0.17578 z m 4.291992,-1.01074 q -0.109864,-1.25244 -0.637207,-1.82373 -0.527344,-0.57862 -1.516114,-0.57862 -0.959472,0 -1.523437,0.64454 -0.556641,0.6372 -0.600586,1.75781 z"
         style="font-size:15px;line-height:1.25"
         id="path965" />
      <path
         d="m 105.0498,868.36316 q 0,4.14551 -2.91503,4.14551 -1.83106,0 -2.460942,-1.37696 h -0.03662 q 0.0293,0.0586 0.0293,1.24512 v 3.09815 h -1.318359 v -9.41895 q 0,-1.22314 -0.04395,-1.61865 h 1.274414 q 0.0073,0.0293 0.02197,0.2124 0.01465,0.17578 0.0293,0.54932 0.02197,0.37353 0.02197,0.51269 h 0.0293 q 0.351558,-0.73242 0.930178,-1.06933 0.57861,-0.34424 1.52344,-0.34424 1.46484,0 2.18994,0.98144 0.72509,0.98145 0.72509,3.0835 z m -1.38427,0.0293 q 0,-1.65528 -0.44678,-2.36573 -0.44678,-0.71045 -1.4209,-0.71045 -0.78369,0 -1.23047,0.32959 -0.43945,0.32959 -0.673825,1.03272 -0.227051,0.6958 -0.227051,1.81641 0,1.56005 0.498046,2.2998 0.49805,0.73975 1.61865,0.73975 0.98145,0 1.42823,-0.71778 0.4541,-0.7251 0.4541,-2.42431 z"
         style="font-size:15px;line-height:1.25"
         id="path967" />
      <path
         d="m 113.39209,868.39246 q 0,2.08007 -0.91553,3.09814 -0.91552,1.01807 -2.65869,1.01807 -1.73584,0 -2.62207,-1.05469 -0.88623,-1.06201 -0.88623,-3.06152 0,-4.10157 3.55225,-4.10157 1.8164,0 2.67334,1.00342 0.85693,0.9961 0.85693,3.09815 z m -1.38428,0 q 0,-1.64063 -0.49072,-2.38038 -0.4834,-0.74707 -1.6333,-0.74707 -1.15723,0 -1.67725,0.76172 -0.51269,0.7544 -0.51269,2.36573 0,1.56738 0.50537,2.35839 0.51269,0.7837 1.604,0.7837 1.18653,0 1.6919,-0.76172 0.51269,-0.76172 0.51269,-2.38037 z"
         style="font-size:15px;line-height:1.25"
         id="path969" />
      <path
         d="m 120.97998,870.17224 q 0,1.12061 -0.84961,1.72852 -0.84228,0.60791 -2.36572,0.60791 -1.47949,0 -2.28516,-0.4834 -0.79834,-0.49072 -1.04004,-1.52344 l 1.16455,-0.22705 q 0.16846,0.63721 0.6958,0.9375 0.52735,0.29297 1.46485,0.29297 1.00342,0 1.46484,-0.30762 0.46875,-0.30762 0.46875,-0.92285 0,-0.46875 -0.32226,-0.76172 -0.32227,-0.29297 -1.04004,-0.4834 l -0.94483,-0.24902 q -1.13525,-0.29297 -1.61865,-0.57129 -0.47607,-0.28564 -0.74707,-0.68848 -0.271,-0.40283 -0.271,-0.98877 0,-1.08398 0.76905,-1.64794 0.77636,-0.57129 2.25586,-0.57129 1.31103,0 2.08008,0.46142 0.77636,0.46143 0.98144,1.47949 l -1.18652,0.14649 q -0.10987,-0.52735 -0.59326,-0.80567 -0.47608,-0.28564 -1.28174,-0.28564 -0.89356,0 -1.31836,0.271 -0.42481,0.27099 -0.42481,0.82031 0,0.33691 0.17578,0.55664 0.17579,0.21973 0.52002,0.37353 0.34424,0.15381 1.4502,0.42481 1.04736,0.26367 1.50879,0.49072 0.46142,0.21973 0.7251,0.49072 0.27099,0.271 0.41748,0.62989 0.14648,0.35156 0.14648,0.80566 z"
         style="font-size:15px;line-height:1.25"
         id="path971" />
    </g>
    <g
       aria-label="plywood"
       id="text4327"
       style="font-style:normal;font-variant:normal;font-weight:normal;font-stretch:normal;line-height:0%;font-family:'Liberation Sans';-inkscape-font-specification:'Liberation Sans';letter-spacing:0px;word-spacing:0px;fill:#4d4d4d;fill-opacity:1;stroke:none;stroke-width:1px;stroke-linecap:butt;stroke-linejoin:miter;stroke-opacity:1">
      <path
         d="m 119.7124,892.36316 q 0,4.14551 -2.91504,4.14551 -1.83105,0 -2.46093,-1.37696 h -0.0366 q 0.0293,0.0586 0.0293,1.24512 v 3.09815 h -1.31836 v -9.41895 q 0,-1.22314 -0.0439,-1.61865 h 1.27441 q 0.007,0.0293 0.022,0.2124 0.0146,0.17578 0.0293,0.54932 0.022,0.37353 0.022,0.51269 h 0.0293 q 0.35156,-0.73242 0.93018,-1.06933 0.57861,-0.34424 1.52343,-0.34424 1.46485,0 2.18994,0.98144 0.7251,0.98145 0.7251,3.0835 z m -1.38427,0.0293 q 0,-1.65528 -0.44678,-2.36573 -0.44678,-0.71045 -1.4209,-0.71045 -0.78369,0 -1.23047,0.32959 -0.43945,0.32959 -0.67383,1.03272 -0.22705,0.6958 -0.22705,1.81641 0,1.56005 0.49805,2.2998 0.49805,0.73975 1.61865,0.73975 0.98145,0 1.42822,-0.71778 0.45411,-0.7251 0.45411,-2.42431 z"
         style="font-size:15px;line-height:1.25"
         id="path974" />
      <path
         d="m 121.35303,896.36218 v -10.86914 h 1.31836 v 10.86914 z"
         style="font-size:15px;line-height:1.25"
         id="path976" />
      <path
         d="m 125.07373,899.47498 q -0.54199,0 -0.9082,-0.0806 v -0.98877 q 0.27832,0.0439 0.61523,0.0439 1.23047,0 1.94824,-1.80908 l 0.12452,-0.31494 -3.14209,-7.88818 h 1.40625 l 1.66992,4.37988 q 0.0366,0.10254 0.0879,0.24902 0.0513,0.13916 0.32959,0.95215 0.27832,0.81299 0.30029,0.90821 l 0.5127,-1.44288 1.73584,-5.04638 h 1.3916 l -3.04688,7.9248 q -0.49072,1.26709 -0.91552,1.88233 -0.42481,0.62256 -0.94483,0.92285 -0.51269,0.30762 -1.16455,0.30762 z"
         style="font-size:15px;line-height:1.25"
         id="path978" />
      <path
         d="m 139.77344,896.36218 h -1.53076 l -1.38428,-5.60302 -0.26367,-1.2378 q -0.0659,0.32959 -0.20508,0.95215 -0.13916,0.61524 -1.49414,5.88867 h -1.52344 l -2.21924,-7.9248 h 1.30371 l 1.34033,5.3833 q 0.0513,0.17578 0.31495,1.45019 l 0.12451,-0.54199 1.65527,-6.2915 h 1.41358 l 1.38427,5.44189 0.33692,1.3916 0.22705,-1.01806 1.50146,-5.81543 h 1.28907 z"
         style="font-size:15px;line-height:1.25"
         id="path980" />
      <path
         d="m 149.71973,892.39246 q 0,2.08007 -0.91553,3.09814 -0.91553,1.01807 -2.65869,1.01807 -1.73584,0 -2.62207,-1.05469 -0.88623,-1.06201 -0.88623,-3.06152 0,-4.10157 3.55224,-4.10157 1.81641,0 2.67334,1.00342 0.85694,0.9961 0.85694,3.09815 z m -1.38428,0 q 0,-1.64063 -0.49072,-2.38038 -0.4834,-0.74707 -1.6333,-0.74707 -1.15723,0 -1.67725,0.76172 -0.5127,0.7544 -0.5127,2.36573 0,1.56738 0.50538,2.35839 0.51269,0.7837 1.604,0.7837 1.18652,0 1.69189,-0.76172 0.5127,-0.76172 0.5127,-2.38037 z"
         style="font-size:15px;line-height:1.25"
         id="path982" />
      <path
         d="m 158.06201,892.39246 q 0,2.08007 -0.91553,3.09814 -0.91552,1.01807 -2.65869,1.01807 -1.73584,0 -2.62207,-1.05469 -0.88623,-1.06201 -0.88623,-3.06152 0,-4.10157 3.55225,-4.10157 1.8164,0 2.67334,1.00342 0.85693,0.9961 0.85693,3.09815 z m -1.38428,0 q 0,-1.64063 -0.49072,-2.38038 -0.4834,-0.74707 -1.6333,-0.74707 -1.15723,0 -1.67725,0.76172 -0.51269,0.7544 -0.51269,2.36573 0,1.56738 0.50537,2.35839 0.5127,0.7837 1.604,0.7837 1.18653,0 1.6919,-0.76172 0.51269,-0.76172 0.51269,-2.38037 z"
         style="font-size:15px;line-height:1.25"
         id="path984" />
      <path
         d="m 164.70508,895.08777 q -0.36621,0.76172 -0.97412,1.09131 -0.60059,0.32959 -1.49414,0.32959 -1.50147,0 -2.21192,-1.01075 -0.70312,-1.01074 -0.70312,-3.06152 0,-4.14551 2.91504,-4.14551 0.90088,0 1.50146,0.32959 0.60059,0.32959 0.9668,1.04737 h 0.0146 l -0.0146,-0.88623 v -3.28858 h 1.31836 v 9.23584 q 0,1.23779 0.0439,1.6333 h -1.25976 q -0.022,-0.11718 -0.0513,-0.54199 -0.022,-0.4248 -0.022,-0.73242 z m -3.99903,-2.69531 q 0,1.66259 0.43946,2.38037 0.43945,0.71777 1.42822,0.71777 1.12061,0 1.62598,-0.77637 0.50537,-0.77636 0.50537,-2.40966 0,-1.57471 -0.50537,-2.30713 -0.50537,-0.73243 -1.61133,-0.73243 -0.99609,0 -1.44287,0.73975 -0.43946,0.73242 -0.43946,2.3877 z"
         style="font-size:15px;line-height:1.25"
         id="path986" />
    </g>
    <g
       aria-label="info.pylon"
       id="text4351"
       style="font-style:normal;font-variant:normal;font-weight:normal;font-stretch:normal;line-height:0%;font-family:'Liberation Sans';-inkscape-font-specification:'Liberation Sans';letter-spacing:0px;word-spacing:0px;fill:#4d4d4d;fill-opacity:1;stroke:none;stroke-width:1px;stroke-linecap:butt;stroke-linejoin:miter;stroke-opacity:1">
      <path
         d="m 141.00342,934.75281 v -1.25977 h 1.31836 v 1.25977 z m 0,9.60937 v -7.9248 h 1.31836 v 7.9248 z"
         style="font-size:15px;line-height:1.25"
         id="path1050" />
      <path
         d="m 149.375,944.36218 v -5.02441 q 0,-0.78369 -0.15381,-1.21582 -0.15381,-0.43213 -0.49072,-0.62256 -0.33692,-0.19043 -0.98877,-0.19043 -0.95215,0 -1.50147,0.65186 -0.54931,0.65185 -0.54931,1.80908 v 4.59228 h -1.31836 v -6.23291 q 0,-1.38427 -0.0439,-1.69189 h 1.24512 q 0.007,0.0366 0.0146,0.19775 0.007,0.16113 0.0146,0.37354 0.0147,0.20508 0.0293,0.78369 h 0.022 q 0.4541,-0.82031 1.04736,-1.15723 0.60059,-0.34424 1.48682,-0.34424 1.30371,0 1.90429,0.65186 0.60791,0.64453 0.60791,2.13867 v 5.28076 z"
         style="font-size:15px;line-height:1.25"
         id="path1052" />
      <path
         d="m 154.31885,937.39685 v 6.96533 h -1.31836 v -6.96533 h -1.11328 v -0.95947 h 1.11328 v -0.89356 q 0,-1.08398 0.47607,-1.56006 0.47608,-0.47607 1.45752,-0.47607 0.54932,0 0.93018,0.0879 v 1.00342 q -0.32959,-0.0586 -0.58594,-0.0586 -0.50537,0 -0.73242,0.25634 -0.22705,0.25635 -0.22705,0.93018 v 0.71045 h 1.54541 v 0.95947 z"
         style="font-size:15px;line-height:1.25"
         id="path1054" />
      <path
         d="m 163.55469,940.39246 q 0,2.08007 -0.91553,3.09814 -0.91553,1.01807 -2.65869,1.01807 -1.73584,0 -2.62207,-1.05469 -0.88623,-1.06201 -0.88623,-3.06152 0,-4.10157 3.55224,-4.10157 1.81641,0 2.67334,1.00342 0.85694,0.9961 0.85694,3.09815 z m -1.38428,0 q 0,-1.64063 -0.49072,-2.38038 -0.4834,-0.74707 -1.6333,-0.74707 -1.15723,0 -1.67725,0.76172 -0.51269,0.7544 -0.51269,2.36573 0,1.56738 0.50537,2.35839 0.51269,0.7837 1.604,0.7837 1.18652,0 1.69189,-0.76172 0.5127,-0.76172 0.5127,-2.38037 z"
         style="font-size:15px;line-height:1.25"
         id="path1056" />
      <path
         d="m 165.5542,944.36218 v -1.604 h 1.42822 v 1.604 z"
         style="font-size:15px;line-height:1.25"
         id="path1058" />
      <path
         d="m 176.06445,940.36316 q 0,4.14551 -2.91504,4.14551 -1.83105,0 -2.46093,-1.37696 h -0.0366 q 0.0293,0.0586 0.0293,1.24512 v 3.09815 h -1.31836 v -9.41895 q 0,-1.22314 -0.0439,-1.61865 h 1.27441 q 0.007,0.0293 0.022,0.2124 0.0147,0.17578 0.0293,0.54932 0.022,0.37353 0.022,0.51269 h 0.0293 q 0.35156,-0.73242 0.93018,-1.06933 0.57861,-0.34424 1.52343,-0.34424 1.46485,0 2.18995,0.98144 0.72509,0.98145 0.72509,3.0835 z m -1.38427,0.0293 q 0,-1.65528 -0.44678,-2.36573 -0.44678,-0.71045 -1.4209,-0.71045 -0.78369,0 -1.23047,0.32959 -0.43945,0.32959 -0.67383,1.03272 -0.22705,0.6958 -0.22705,1.81641 0,1.56005 0.49805,2.2998 0.49805,0.73975 1.61865,0.73975 0.98145,0 1.42822,-0.71778 0.45411,-0.7251 0.45411,-2.42431 z"
         style="font-size:15px;line-height:1.25"
         id="path1060" />
      <path
         d="m 178.09326,947.47498 q -0.54199,0 -0.9082,-0.0806 v -0.98877 q 0.27832,0.0439 0.61523,0.0439 1.23047,0 1.94825,-1.80908 l 0.12451,-0.31494 -3.14209,-7.88818 h 1.40625 l 1.66992,4.37988 q 0.0366,0.10254 0.0879,0.24902 0.0513,0.13916 0.32959,0.95215 0.27832,0.81299 0.30029,0.90821 l 0.5127,-1.44288 1.73584,-5.04638 h 1.3916 l -3.04688,7.9248 q -0.49072,1.26709 -0.91552,1.88233 -0.42481,0.62256 -0.94483,0.92285 -0.51269,0.30762 -1.16455,0.30762 z"
         style="font-size:15px;line-height:1.25"
         id="path1062" />
      <path
         d="m 185.20508,944.36218 v -10.86914 h 1.31836 v 10.86914 z"
         style="font-size:15px;line-height:1.25"
         id="path1064" />
      <path
         d="m 195.23926,940.39246 q 0,2.08007 -0.91553,3.09814 -0.91553,1.01807 -2.65869,1.01807 -1.73584,0 -2.62207,-1.05469 -0.88623,-1.06201 -0.88623,-3.06152 0,-4.10157 3.55224,-4.10157 1.81641,0 2.67334,1.00342 0.85694,0.9961 0.85694,3.09815 z m -1.38428,0 q 0,-1.64063 -0.49072,-2.38038 -0.4834,-0.74707 -1.6333,-0.74707 -1.15723,0 -1.67725,0.76172 -0.51269,0.7544 -0.51269,2.36573 0,1.56738 0.50537,2.35839 0.51269,0.7837 1.604,0.7837 1.18652,0 1.6919,-0.76172 0.51269,-0.76172 0.51269,-2.38037 z"
         style="font-size:15px;line-height:1.25"
         id="path1066" />
      <path
         d="m 201.91162,944.36218 v -5.02441 q 0,-0.78369 -0.15381,-1.21582 -0.15381,-0.43213 -0.49072,-0.62256 -0.33691,-0.19043 -0.98877,-0.19043 -0.95215,0 -1.50146,0.65186 -0.54932,0.65185 -0.54932,1.80908 v 4.59228 h -1.31836 v -6.23291 q 0,-1.38427 -0.0439,-1.69189 h 1.24512 q 0.007,0.0366 0.0146,0.19775 0.007,0.16113 0.0146,0.37354 0.0147,0.20508 0.0293,0.78369 h 0.022 q 0.4541,-0.82031 1.04736,-1.15723 0.60059,-0.34424 1.48682,-0.34424 1.30371,0 1.90429,0.65186 0.60791,0.64453 0.60791,2.13867 v 5.28076 z"
         style="font-size:15px;line-height:1.25"
         id="path1068" />
    </g>
    <g
       aria-label="data"
       id="text4375"
       style="font-style:normal;font-variant:normal;font-weight:normal;font-stretch:normal;line-height:0%;font-family:'Liberation Sans';-inkscape-font-specification:'Liberation Sans';letter-spacing:0px;word-spacing:0px;fill:#4d4d4d;fill-opacity:1;stroke:none;stroke-width:1px;stroke-linecap:butt;stroke-linejoin:miter;stroke-opacity:1">
      <path
         d="m 146.01318,1015.0878 q -0.36621,0.7617 -0.97412,1.0913 -0.60058,0.3296 -1.49414,0.3296 -1.50146,0 -2.21191,-1.0108 -0.70313,-1.0107 -0.70313,-3.0615 0,-4.1455 2.91504,-4.1455 0.90088,0 1.50147,0.3296 0.60058,0.3296 0.96679,1.0473 h 0.0146 l -0.0146,-0.8862 v -3.2886 h 1.31836 v 9.2359 q 0,1.2378 0.044,1.6333 h -1.25977 q -0.022,-0.1172 -0.0513,-0.542 -0.022,-0.4248 -0.022,-0.7324 z m -3.99902,-2.6953 q 0,1.6626 0.43945,2.3803 0.43946,0.7178 1.42823,0.7178 1.1206,0 1.62597,-0.7764 0.50537,-0.7763 0.50537,-2.4096 0,-1.5747 -0.50537,-2.3072 -0.50537,-0.7324 -1.61133,-0.7324 -0.99609,0 -1.44287,0.7398 -0.43945,0.7324 -0.43945,2.3877 z"
         style="font-size:15px;line-height:1.25"
         id="path1105" />
      <path
         d="m 151.37451,1016.5087 q -1.19385,0 -1.79443,-0.6299 -0.60059,-0.6299 -0.60059,-1.7285 0,-1.2305 0.80567,-1.8897 0.81298,-0.6592 2.61474,-0.7031 l 1.77979,-0.029 v -0.4321 q 0,-0.9668 -0.41016,-1.3843 -0.41016,-0.4175 -1.28906,-0.4175 -0.88623,0 -1.28906,0.3003 -0.40284,0.3003 -0.4834,0.9595 l -1.37696,-0.1245 q 0.33692,-2.1387 3.17872,-2.1387 1.49414,0 2.24853,0.6885 0.7544,0.6811 0.7544,1.9775 v 3.4131 q 0,0.5859 0.1538,0.8862 0.15381,0.293 0.58594,0.293 0.19043,0 0.43213,-0.051 v 0.8203 q -0.49805,0.1172 -1.01807,0.1172 -0.73242,0 -1.06933,-0.3808 -0.32959,-0.3882 -0.37354,-1.2085 h -0.0439 q -0.50537,0.9082 -1.1792,1.289 -0.66651,0.3736 -1.62598,0.3736 z m 0.30029,-0.9888 q 0.7251,0 1.28907,-0.3296 0.56396,-0.3296 0.88623,-0.9009 0.32959,-0.5786 0.32959,-1.1865 v -0.6519 l -1.44287,0.029 q -0.93018,0.015 -1.41358,0.1905 -0.47607,0.1758 -0.73242,0.542 -0.25635,0.3662 -0.25635,0.9594 0,0.6446 0.34424,0.9961 0.35156,0.3516 0.99609,0.3516 z"
         style="font-size:15px;line-height:1.25"
         id="path1107" />
      <path
         d="m 160.74219,1016.3036 q -0.65186,0.1758 -1.33301,0.1758 -1.58203,0 -1.58203,-1.7945 v -5.288 h -0.91553 v -0.9595 h 0.9668 l 0.38818,-1.7725 h 0.87891 v 1.7725 h 1.46484 v 0.9595 h -1.46484 v 5.0024 q 0,0.5713 0.1831,0.8057 0.19043,0.227 0.65186,0.227 0.26367,0 0.76172,-0.1025 z"
         style="font-size:15px;line-height:1.25"
         id="path1109" />
      <path
         d="m 163.88428,1016.5087 q -1.19385,0 -1.79444,-0.6299 -0.60058,-0.6299 -0.60058,-1.7285 0,-1.2305 0.80566,-1.8897 0.81299,-0.6592 2.61475,-0.7031 l 1.77978,-0.029 v -0.4321 q 0,-0.9668 -0.41015,-1.3843 -0.41016,-0.4175 -1.28907,-0.4175 -0.88623,0 -1.28906,0.3003 -0.40283,0.3003 -0.4834,0.9595 l -1.37695,-0.1245 q 0.33691,-2.1387 3.17871,-2.1387 1.49414,0 2.24854,0.6885 0.75439,0.6811 0.75439,1.9775 v 3.4131 q 0,0.5859 0.15381,0.8862 0.15381,0.293 0.58594,0.293 0.19043,0 0.43213,-0.051 v 0.8203 q -0.49805,0.1172 -1.01807,0.1172 -0.73242,0 -1.06934,-0.3808 -0.32959,-0.3882 -0.37353,-1.2085 h -0.0439 q -0.50537,0.9082 -1.1792,1.289 -0.6665,0.3736 -1.62597,0.3736 z m 0.30029,-0.9888 q 0.7251,0 1.28906,-0.3296 0.56397,-0.3296 0.88623,-0.9009 0.32959,-0.5786 0.32959,-1.1865 v -0.6519 l -1.44287,0.029 q -0.93017,0.015 -1.41357,0.1905 -0.47608,0.1758 -0.73242,0.542 -0.25635,0.3662 -0.25635,0.9594 0,0.6446 0.34424,0.9961 0.35156,0.3516 0.99609,0.3516 z"
         style="font-size:15px;line-height:1.25"
         id="path1111" />
    </g>
    <g
       aria-label="LICENSE"
       id="text4399"
       style="font-style:normal;font-variant:normal;font-weight:normal;font-stretch:normal;line-height:0%;font-family:'Liberation Sans';-inkscape-font-specification:'Liberation Sans';letter-spacing:0px;word-spacing:0px;fill:#4d4d4d;fill-opacity:1;stroke:none;stroke-width:1px;stroke-linecap:butt;stroke-linejoin:miter;stroke-opacity:1">
      <path
         d="m 141.23047,968.36218 v -10.31982 h 1.39892 v 9.17724 h 5.21485 v 1.14258 z"
         style="font-size:15px;line-height:1.25"
         id="path1071" />
      <path
         d="m 149.72656,968.36218 v -10.31982 h 1.39893 v 10.31982 z"
         style="font-size:15px;line-height:1.25"
         id="path1073" />
      <path
         d="m 158.31055,959.03113 q -1.71387,0 -2.66602,1.10595 -0.95215,1.09864 -0.95215,3.01758 0,1.89698 0.98877,3.0542 0.9961,1.1499 2.68799,1.1499 2.16797,0 3.25928,-2.14599 l 1.14258,0.57129 q -0.63721,1.33301 -1.79444,2.02881 -1.1499,0.6958 -2.67334,0.6958 -1.56006,0 -2.70263,-0.64453 -1.13526,-0.65186 -1.73584,-1.85303 -0.59327,-1.2085 -0.59327,-2.85645 0,-2.46826 1.33301,-3.86718 1.33301,-1.39893 3.69141,-1.39893 1.64795,0 2.7539,0.64453 1.10596,0.64453 1.62598,1.91162 l -1.32568,0.43946 q -0.35889,-0.90088 -1.15723,-1.37696 -0.79101,-0.47607 -1.88232,-0.47607 z"
         style="font-size:15px;line-height:1.25"
         id="path1075" />
      <path
         d="m 164.57275,968.36218 v -10.31982 h 7.82959 v 1.14258 h -6.43066 v 3.31054 h 5.99121 v 1.12793 h -5.99121 v 3.59619 h 6.73096 v 1.14258 z"
         style="font-size:15px;line-height:1.25"
         id="path1077" />
      <path
         d="m 181.27197,968.36218 -5.52246,-8.78906 0.0366,0.71045 0.0366,1.22314 v 6.85547 h -1.24511 v -10.31982 h 1.62597 l 5.58106,8.84765 q -0.0879,-1.43554 -0.0879,-2.08007 v -6.76758 h 1.25976 v 10.31982 z"
         style="font-size:15px;line-height:1.25"
         id="path1079" />
      <path
         d="m 193.49609,965.51306 q 0,1.42822 -1.1206,2.21192 -1.11328,0.78369 -3.14209,0.78369 -3.77197,0 -4.37256,-2.62207 l 1.35498,-0.271 q 0.23438,0.93018 0.99609,1.36963 0.76172,0.43213 2.07276,0.43213 1.35498,0 2.0874,-0.46143 0.73975,-0.46875 0.73975,-1.36963 0,-0.50537 -0.23438,-0.82031 -0.22705,-0.31494 -0.64453,-0.52002 -0.41748,-0.20508 -0.99609,-0.34424 -0.57862,-0.13916 -1.28174,-0.30029 -1.22315,-0.271 -1.86035,-0.54199 -0.62989,-0.271 -0.9961,-0.60059 -0.36621,-0.33691 -0.56396,-0.78369 -0.19043,-0.44678 -0.19043,-1.02539 0,-1.32568 1.01074,-2.04346 1.01807,-0.71777 2.90772,-0.71777 1.75781,0 2.68798,0.54199 0.93018,0.53467 1.30371,1.83106 l -1.37695,0.2417 q -0.22705,-0.82032 -0.86426,-1.18653 -0.6372,-0.37353 -1.76513,-0.37353 -1.2378,0 -1.88965,0.41015 -0.65186,0.41016 -0.65186,1.22315 0,0.47607 0.24903,0.79101 0.25634,0.30762 0.73242,0.52735 0.47607,0.2124 1.89697,0.52734 0.47608,0.10986 0.94483,0.22705 0.47607,0.10987 0.9082,0.271 0.43213,0.15381 0.80566,0.36621 0.38086,0.2124 0.65918,0.52002 0.27832,0.30762 0.43213,0.7251 0.16113,0.41748 0.16113,0.98144 z"
         style="font-size:15px;line-height:1.25"
         id="path1081" />
      <path
         d="m 195.41504,968.36218 v -10.31982 h 7.82959 v 1.14258 h -6.43067 v 3.31054 h 5.99122 v 1.12793 h -5.99122 v 3.59619 h 6.73096 v 1.14258 z"
         style="font-size:15px;line-height:1.25"
         id="path1083" />
    </g>
    <g
       aria-label="README.md"
       id="text4411"
       style="font-style:normal;font-variant:normal;font-weight:normal;font-stretch:normal;line-height:0%;font-family:'Liberation Sans';-inkscape-font-specification:'Liberation Sans';letter-spacing:0px;word-spacing:0px;fill:#4d4d4d;fill-opacity:1;stroke:none;stroke-width:1px;stroke-linecap:butt;stroke-linejoin:miter;stroke-opacity:1">
      <path
         d="m 148.52539,992.36218 -2.68066,-4.28467 h -3.21534 v 4.28467 h -1.39892 v -10.31982 h 4.85596 q 1.74316,0 2.68798,0.78369 0.95215,0.77637 0.95215,2.16797 0,1.1499 -0.67383,1.93359 -0.6665,0.78369 -1.8457,0.98877 l 2.92969,4.4458 z m -0.20508,-7.35351 q 0,-0.90088 -0.61523,-1.36963 -0.60791,-0.47608 -1.75781,-0.47608 h -3.31788 v 3.8086 h 3.37647 q 1.10596,0 1.70654,-0.5127 0.60791,-0.52002 0.60791,-1.45019 z"
         style="font-size:15px;line-height:1.25"
         id="path1086" />
      <path
         d="m 152.06299,992.36218 v -10.31982 h 7.82959 v 1.14258 h -6.43067 v 3.31054 h 5.99121 v 1.12793 h -5.99121 v 3.59619 h 6.73096 v 1.14258 z"
         style="font-size:15px;line-height:1.25"
         id="path1088" />
      <path
         d="m 169.38477,992.36218 -1.1792,-3.01758 h -4.70215 l -1.18653,3.01758 h -1.45019 l 4.21142,-10.31982 h 1.58936 l 4.14551,10.31982 z m -3.53028,-9.26513 -0.0659,0.20507 q -0.1831,0.60791 -0.54199,1.56006 l -1.31836,3.39112 h 3.85987 l -1.32569,-3.40577 q -0.20508,-0.50537 -0.41015,-1.14257 z"
         style="font-size:15px;line-height:1.25"
         id="path1090" />
      <path
         d="m 180.95703,987.09607 q 0,1.59668 -0.62256,2.79785 -0.62256,1.19385 -1.76513,1.83106 -1.14258,0.6372 -2.63672,0.6372 h -3.85987 v -10.31982 h 3.41309 q 2.62207,0 4.04297,1.31836 1.42822,1.31103 1.42822,3.73535 z m -1.40625,0 q 0,-1.91895 -1.05469,-2.92236 -1.04736,-1.01075 -3.03955,-1.01075 h -1.98486 v 8.07862 h 2.2998 q 1.13526,0 1.99219,-0.49805 0.86426,-0.49805 1.32569,-1.43555 0.46142,-0.9375 0.46142,-2.21191 z"
         style="font-size:15px;line-height:1.25"
         id="path1092" />
      <path
         d="m 191.67969,992.36218 v -6.88476 q 0,-1.14258 0.0659,-2.19727 -0.35889,1.31104 -0.64454,2.05078 l -2.66601,7.03125 h -0.98145 l -2.70263,-7.03125 -0.41016,-1.24511 -0.2417,-0.80567 0.022,0.81299 0.0293,1.38428 v 6.88476 h -1.24512 v -10.31982 h 1.83838 l 2.74658,7.15576 q 0.14649,0.43213 0.27832,0.93018 0.13916,0.49072 0.18311,0.71045 0.0586,-0.29297 0.2417,-0.88624 0.19043,-0.60058 0.25635,-0.75439 l 2.69531,-7.15576 h 1.79443 v 10.31982 z"
         style="font-size:15px;line-height:1.25"
         id="path1094" />
      <path
         d="m 195.40039,992.36218 v -10.31982 h 7.82959 v 1.14258 h -6.43066 v 3.31054 h 5.99121 v 1.12793 h -5.99121 v 3.59619 h 6.73095 v 1.14258 z"
         style="font-size:15px;line-height:1.25"
         id="path1096" />
      <path
         d="m 205.54443,992.36218 v -1.604 h 1.42823 v 1.604 z"
         style="font-size:15px;line-height:1.25"
         id="path1098" />
      <path
         d="m 213.96729,992.36218 v -5.02441 q 0,-1.1499 -0.31495,-1.58936 -0.31494,-0.43945 -1.13525,-0.43945 -0.84229,0 -1.33301,0.64453 -0.49072,0.64453 -0.49072,1.81641 v 4.59228 h -1.31104 v -6.23291 q 0,-1.38427 -0.0439,-1.69189 h 1.24512 q 0.007,0.0366 0.0146,0.19775 0.007,0.16113 0.0146,0.37354 0.0147,0.20508 0.0293,0.78369 h 0.022 q 0.42481,-0.84229 0.97412,-1.17188 0.54932,-0.32959 1.34034,-0.32959 0.90087,0 1.42089,0.35889 0.52735,0.35889 0.73243,1.14258 h 0.022 q 0.41015,-0.79834 0.98877,-1.1499 0.58594,-0.35157 1.41357,-0.35157 1.20117,0 1.74317,0.65186 0.54931,0.65185 0.54931,2.13867 v 5.28076 h -1.30371 v -5.02441 q 0,-1.1499 -0.31494,-1.58936 -0.31494,-0.43945 -1.13525,-0.43945 -0.86426,0 -1.34766,0.64453 -0.47607,0.63721 -0.47607,1.81641 v 4.59228 z"
         style="font-size:15px;line-height:1.25"
         id="path1100" />
      <path
         d="m 226.85059,991.08777 q -0.36622,0.76172 -0.97413,1.09131 -0.60058,0.32959 -1.49414,0.32959 -1.50146,0 -2.21191,-1.01075 -0.70312,-1.01074 -0.70312,-3.06152 0,-4.14551 2.91503,-4.14551 0.90088,0 1.50147,0.32959 0.60058,0.32959 0.9668,1.04737 h 0.0146 l -0.0146,-0.88623 v -3.28858 h 1.31836 v 9.23584 q 0,1.23779 0.0439,1.6333 h -1.25977 q -0.022,-0.11718 -0.0513,-0.54199 -0.022,-0.4248 -0.022,-0.73242 z m -3.99903,-2.69531 q 0,1.66259 0.43946,2.38037 0.43945,0.71777 1.42822,0.71777 1.1206,0 1.62597,-0.77637 0.50538,-0.77636 0.50538,-2.40966 0,-1.57471 -0.50538,-2.30713 -0.50537,-0.73243 -1.61132,-0.73243 -0.9961,0 -1.44287,0.73975 -0.43946,0.73242 -0.43946,2.3877 z"
         style="font-size:15px;line-height:1.25"
         id="path1102" />
    </g>
    <use
       x="0"
       y="0"
       xlink:href="#g4577"
       id="use4855"
       transform="translate(28,24)"
       width="100%"
       height="100%" />
    <g
       aria-label="FlapHero"
       id="text4957"
       style="font-style:normal;font-variant:normal;font-weight:normal;font-stretch:normal;line-height:0%;font-family:'Liberation Sans';-inkscape-font-specification:'Liberation Sans';letter-spacing:0px;word-spacing:0px;fill:#4d4d4d;fill-opacity:1;stroke:none;stroke-width:1px;stroke-linecap:butt;stroke-linejoin:miter;stroke-opacity:1">
      <path
         d="m 114.62939,911.18494 v 3.83789 h 5.75684 v 1.15722 h -5.75684 v 4.18213 h -1.39892 v -10.31982 h 7.33154 v 1.14258 z"
         style="font-size:15px;line-height:1.25"
         id="path1006" />
      <path
         d="m 122.17334,920.36218 v -10.86914 h 1.31836 v 10.86914 z"
         style="font-size:15px;line-height:1.25"
         id="path1008" />
      <path
         d="m 127.52734,920.50867 q -1.19384,0 -1.79443,-0.62989 -0.60059,-0.62988 -0.60059,-1.72851 0,-1.23047 0.80567,-1.88965 0.81299,-0.65918 2.61474,-0.70312 l 1.77979,-0.0293 v -0.43213 q 0,-0.9668 -0.41016,-1.38428 -0.41015,-0.41748 -1.28906,-0.41748 -0.88623,0 -1.28906,0.30029 -0.40283,0.3003 -0.4834,0.95948 l -1.37695,-0.12451 q 0.33691,-2.13868 3.17871,-2.13868 1.49414,0 2.24853,0.68848 0.7544,0.68115 0.7544,1.97754 V 918.37 q 0,0.58593 0.15381,0.88623 0.1538,0.29296 0.58593,0.29296 0.19043,0 0.43213,-0.0513 v 0.82032 q -0.49804,0.11718 -1.01806,0.11718 -0.73243,0 -1.06934,-0.38085 -0.32959,-0.38819 -0.37354,-1.2085 h -0.0439 q -0.50537,0.9082 -1.1792,1.28906 -0.6665,0.37354 -1.62598,0.37354 z m 0.3003,-0.98877 q 0.72509,0 1.28906,-0.32959 0.56396,-0.32959 0.88623,-0.90088 0.32959,-0.57861 0.32959,-1.18652 v -0.65186 l -1.44287,0.0293 q -0.93018,0.0146 -1.41358,0.19043 -0.47607,0.17578 -0.73242,0.54199 -0.25635,0.36621 -0.25635,0.95947 0,0.64453 0.34424,0.99609 0.35157,0.35157 0.9961,0.35157 z"
         style="font-size:15px;line-height:1.25"
         id="path1010" />
      <path
         d="m 140.5498,916.36316 q 0,4.14551 -2.91503,4.14551 -1.83106,0 -2.46094,-1.37696 h -0.0366 q 0.0293,0.0586 0.0293,1.24512 v 3.09815 h -1.31836 v -9.41895 q 0,-1.22314 -0.0439,-1.61865 h 1.27441 q 0.007,0.0293 0.022,0.2124 0.0146,0.17578 0.0293,0.54932 0.022,0.37353 0.022,0.51269 h 0.0293 q 0.35156,-0.73242 0.93018,-1.06933 0.57861,-0.34424 1.52344,-0.34424 1.46484,0 2.18994,0.98144 0.72509,0.98145 0.72509,3.0835 z m -1.38427,0.0293 q 0,-1.65528 -0.44678,-2.36573 -0.44678,-0.71045 -1.4209,-0.71045 -0.78369,0 -1.23047,0.32959 -0.43945,0.32959 -0.67383,1.03272 -0.22705,0.6958 -0.22705,1.81641 0,1.56005 0.49805,2.2998 0.49805,0.73975 1.61865,0.73975 0.98145,0 1.42823,-0.71778 0.4541,-0.7251 0.4541,-2.42431 z"
         style="font-size:15px;line-height:1.25"
         id="path1012" />
      <path
         d="m 149.39014,920.36218 v -4.78271 h -5.58106 v 4.78271 h -1.39892 v -10.31982 h 1.39892 v 4.36523 h 5.58106 v -4.36523 h 1.39892 v 10.31982 z"
         style="font-size:15px;line-height:1.25"
         id="path1014" />
      <path
         d="m 154.03369,916.6781 q 0,1.36231 0.56397,2.10205 0.56396,0.73975 1.64795,0.73975 0.85693,0 1.36962,-0.34424 0.52002,-0.34424 0.70313,-0.87158 l 1.15723,0.32959 q -0.71045,1.875 -3.22998,1.875 -1.75782,0 -2.68067,-1.04737 -0.91553,-1.04736 -0.91553,-3.11279 0,-1.96289 0.91553,-3.01025 0.92285,-1.04737 2.6294,-1.04737 3.49365,0 3.49365,4.21143 v 0.17578 z m 4.29199,-1.01074 q -0.10986,-1.25244 -0.6372,-1.82373 -0.52735,-0.57862 -1.51612,-0.57862 -0.95947,0 -1.52343,0.64454 -0.55664,0.6372 -0.60059,1.75781 z"
         style="font-size:15px;line-height:1.25"
         id="path1016" />
      <path
         d="m 161.39453,920.36218 v -6.0791 q 0,-0.83496 -0.0439,-1.8457 h 1.24511 q 0.0586,1.34765 0.0586,1.61865 h 0.0293 q 0.31495,-1.01807 0.7251,-1.3916 0.41016,-0.37354 1.15723,-0.37354 0.26367,0 0.53467,0.0733 v 1.20849 q -0.26368,-0.0732 -0.70313,-0.0732 -0.82031,0 -1.25244,0.71045 -0.43213,0.70312 -0.43213,2.02148 v 4.13086 z"
         style="font-size:15px;line-height:1.25"
         id="path1018" />
      <path
         d="m 173.06201,916.39246 q 0,2.08007 -0.91553,3.09814 -0.91552,1.01807 -2.65869,1.01807 -1.73584,0 -2.62207,-1.05469 -0.88623,-1.06201 -0.88623,-3.06152 0,-4.10157 3.55225,-4.10157 1.8164,0 2.67334,1.00342 0.85693,0.9961 0.85693,3.09815 z m -1.38428,0 q 0,-1.64063 -0.49072,-2.38038 -0.4834,-0.74707 -1.6333,-0.74707 -1.15723,0 -1.67725,0.76172 -0.51269,0.7544 -0.51269,2.36573 0,1.56738 0.50537,2.35839 0.5127,0.7837 1.604,0.7837 1.18653,0 1.6919,-0.76172 0.51269,-0.76172 0.51269,-2.38037 z"
         style="font-size:15px;line-height:1.25"
         id="path1020" />
    </g>
    <use
       height="100%"
       width="100%"
       transform="translate(56,72)"
       id="use4961"
       xlink:href="#g4577"
       y="0"
       x="0" />
    <g
       transform="translate(81,449)"
       id="g4970">
      <path
         style="opacity:1;fill:#ffffff;fill-opacity:1;stroke:#acacac;stroke-width:1;stroke-linejoin:miter;stroke-miterlimit:4;stroke-dasharray:none;stroke-opacity:1"
         d="m 32.5,481.86218 h 13 l 3,3 v 15 h -16 z"
         id="path4972"
         inkscape:connector-curvature="0"
         sodipodi:nodetypes="cccccc" />
      <path
         style="fill:none;fill-rule:evenodd;stroke:#aac1ce;stroke-width:1px;stroke-linecap:butt;stroke-linejoin:miter;stroke-opacity:1"
         d="m 35.999999,489.86218 h 9"
         id="path4974"
         inkscape:connector-curvature="0" />
      <path
         inkscape:connector-curvature="0"
         id="path4976"
         d="m 35.999999,491.86218 h 9"
         style="fill:none;fill-rule:evenodd;stroke:#aac1ce;stroke-width:1px;stroke-linecap:butt;stroke-linejoin:miter;stroke-opacity:1" />
      <path
         style="fill:none;fill-rule:evenodd;stroke:#aac1ce;stroke-width:1px;stroke-linecap:butt;stroke-linejoin:miter;stroke-opacity:1"
         d="m 35.999999,493.86218 h 9"
         id="path4978"
         inkscape:connector-curvature="0" />
      <path
         inkscape:connector-curvature="0"
         id="path4980"
         d="m 35.999999,495.86218 h 9"
         style="fill:none;fill-rule:evenodd;stroke:#aac1ce;stroke-width:1px;stroke-linecap:butt;stroke-linejoin:miter;stroke-opacity:1" />
      <path
         style="fill:none;fill-rule:evenodd;stroke:#acacac;stroke-width:1px;stroke-linecap:butt;stroke-linejoin:miter;stroke-opacity:1"
         d="m 45.499999,481.86219 v 3 h 3"
         id="path4982"
         inkscape:connector-curvature="0" />
      <path
         inkscape:connector-curvature="0"
         id="path4984"
         d="m 35.999999,487.86218 h 9"
         style="fill:none;fill-rule:evenodd;stroke:#aac1ce;stroke-width:1px;stroke-linecap:butt;stroke-linejoin:miter;stroke-opacity:1" />
      <path
         style="fill:none;fill-rule:evenodd;stroke:#aac1ce;stroke-width:1px;stroke-linecap:butt;stroke-linejoin:miter;stroke-opacity:1"
         d="m 35.999999,487.86218 h 9"
         id="path4986"
         inkscape:connector-curvature="0" />
    </g>
    <g
       id="g4997"
       transform="translate(81,473)">
      <path
         sodipodi:nodetypes="cccccc"
         inkscape:connector-curvature="0"
         id="path4999"
         d="m 32.5,481.86218 h 13 l 3,3 v 15 h -16 z"
         style="opacity:1;fill:#ffffff;fill-opacity:1;stroke:#acacac;stroke-width:1;stroke-linejoin:miter;stroke-miterlimit:4;stroke-dasharray:none;stroke-opacity:1" />
      <path
         inkscape:connector-curvature="0"
         id="path5001"
         d="m 35.999999,489.86218 h 9"
         style="fill:none;fill-rule:evenodd;stroke:#aac1ce;stroke-width:1px;stroke-linecap:butt;stroke-linejoin:miter;stroke-opacity:1" />
      <path
         style="fill:none;fill-rule:evenodd;stroke:#aac1ce;stroke-width:1px;stroke-linecap:butt;stroke-linejoin:miter;stroke-opacity:1"
         d="m 35.999999,491.86218 h 9"
         id="path5003"
         inkscape:connector-curvature="0" />
      <path
         inkscape:connector-curvature="0"
         id="path5005"
         d="m 35.999999,493.86218 h 9"
         style="fill:none;fill-rule:evenodd;stroke:#aac1ce;stroke-width:1px;stroke-linecap:butt;stroke-linejoin:miter;stroke-opacity:1" />
      <path
         style="fill:none;fill-rule:evenodd;stroke:#aac1ce;stroke-width:1px;stroke-linecap:butt;stroke-linejoin:miter;stroke-opacity:1"
         d="m 35.999999,495.86218 h 9"
         id="path5007"
         inkscape:connector-curvature="0" />
      <path
         inkscape:connector-curvature="0"
         id="path5009"
         d="m 45.499999,481.86219 v 3 h 3"
         style="fill:none;fill-rule:evenodd;stroke:#acacac;stroke-width:1px;stroke-linecap:butt;stroke-linejoin:miter;stroke-opacity:1" />
      <path
         style="fill:none;fill-rule:evenodd;stroke:#aac1ce;stroke-width:1px;stroke-linecap:butt;stroke-linejoin:miter;stroke-opacity:1"
         d="m 35.999999,487.86218 h 9"
         id="path5011"
         inkscape:connector-curvature="0" />
      <path
         inkscape:connector-curvature="0"
         id="path5013"
         d="m 35.999999,487.86218 h 9"
         style="fill:none;fill-rule:evenodd;stroke:#aac1ce;stroke-width:1px;stroke-linecap:butt;stroke-linejoin:miter;stroke-opacity:1" />
    </g>
    <g
       transform="translate(81,497)"
       id="g5015">
      <path
         style="opacity:1;fill:#ffffff;fill-opacity:1;stroke:#acacac;stroke-width:1;stroke-linejoin:miter;stroke-miterlimit:4;stroke-dasharray:none;stroke-opacity:1"
         d="m 32.5,481.86218 h 13 l 3,3 v 15 h -16 z"
         id="path5017"
         inkscape:connector-curvature="0"
         sodipodi:nodetypes="cccccc" />
      <path
         style="fill:none;fill-rule:evenodd;stroke:#aac1ce;stroke-width:1px;stroke-linecap:butt;stroke-linejoin:miter;stroke-opacity:1"
         d="m 35.999999,489.86218 h 9"
         id="path5019"
         inkscape:connector-curvature="0" />
      <path
         inkscape:connector-curvature="0"
         id="path5021"
         d="m 35.999999,491.86218 h 9"
         style="fill:none;fill-rule:evenodd;stroke:#aac1ce;stroke-width:1px;stroke-linecap:butt;stroke-linejoin:miter;stroke-opacity:1" />
      <path
         style="fill:none;fill-rule:evenodd;stroke:#aac1ce;stroke-width:1px;stroke-linecap:butt;stroke-linejoin:miter;stroke-opacity:1"
         d="m 35.999999,493.86218 h 9"
         id="path5023"
         inkscape:connector-curvature="0" />
      <path
         inkscape:connector-curvature="0"
         id="path5025"
         d="m 35.999999,495.86218 h 9"
         style="fill:none;fill-rule:evenodd;stroke:#aac1ce;stroke-width:1px;stroke-linecap:butt;stroke-linejoin:miter;stroke-opacity:1" />
      <path
         style="fill:none;fill-rule:evenodd;stroke:#acacac;stroke-width:1px;stroke-linecap:butt;stroke-linejoin:miter;stroke-opacity:1"
         d="m 45.499999,481.86219 v 3 h 3"
         id="path5027"
         inkscape:connector-curvature="0" />
      <path
         inkscape:connector-curvature="0"
         id="path5029"
         d="m 35.999999,487.86218 h 9"
         style="fill:none;fill-rule:evenodd;stroke:#aac1ce;stroke-width:1px;stroke-linecap:butt;stroke-linejoin:miter;stroke-opacity:1" />
      <path
         style="fill:none;fill-rule:evenodd;stroke:#aac1ce;stroke-width:1px;stroke-linecap:butt;stroke-linejoin:miter;stroke-opacity:1"
         d="m 35.999999,487.86218 h 9"
         id="path5031"
         inkscape:connector-curvature="0" />
    </g>
    <rect
       style="opacity:1;fill:none;fill-opacity:1;stroke:#d04545;stroke-width:2;stroke-linecap:round;stroke-linejoin:round;stroke-miterlimit:4;stroke-dasharray:4, 4;stroke-dashoffset:1.8;stroke-opacity:1"
       id="rect5123"
       width="174.00131"
       height="147"
       x="-246.00131"
       y="-1050.3622"
       rx="6.4444928"
       ry="11"
       transform="scale(-1)" />
    <g
       aria-label="new files"
       id="text5125"
       style="font-style:normal;font-variant:normal;font-weight:normal;font-stretch:normal;line-height:0%;font-family:Asap;-inkscape-font-specification:Asap;text-align:center;letter-spacing:0px;word-spacing:0px;text-anchor:middle;fill:#d04545;fill-opacity:1;stroke:none;stroke-width:1px;stroke-linecap:butt;stroke-linejoin:miter;stroke-opacity:1">
      <path
         d="m 8.8363885,940.25718 c 0,-0.315 0.435,-4.125 0.435,-4.38 0,-1.11 -0.525,-1.95 -1.98,-1.95 -0.915,0 -1.86,0.405 -2.67,1.515 0.015,-0.09 0.015,-0.165 0.015,-0.165 0,-1.08 -0.285,-1.125 -0.39,-1.125 -0.105,0 -0.84,0.015 -0.84,0.345 0,0.09 0.015,0.15 0.015,0.51 0,0.705 -0.66,6.57 -0.66,6.57 0,0.18 0.165,0.315 0.57,0.315 h 0.06 c 0.39,0 0.6,-0.12 0.63,-0.33 0,0 0.24,-2.19 0.435,-4.125 0.645,-1.935 1.725,-2.415 2.385,-2.415 0.765,0 1.14,0.39 1.14,1.155 0,0.285 -0.42,3.81 -0.42,4.305 0,1.02 0.495,1.47 1.35,1.47 0.27,0 0.825,-0.12 0.9,-0.495 0.06,-0.33 0.06,-0.54 0.06,-0.555 0,-0.09 -0.045,-0.105 -0.09,-0.105 -0.09,0 -0.225,0.075 -0.405,0.075 -0.24,0 -0.54,0 -0.54,-0.615 z"
         style="font-style:italic;font-variant:normal;font-weight:normal;font-stretch:normal;font-size:15px;line-height:100%;font-family:Asap;-inkscape-font-specification:Asap;fill:#d04545;fill-opacity:1"
         id="path989" />
      <path
         d="m 14.746377,940.87218 c -1.32,0 -2.19,-0.495 -2.19,-2.16 v -0.15 c 0.315,0.06 0.735,0.105 1.29,0.105 2.04,0 4.05,-0.66 4.05,-2.745 0,-0.765 -0.63,-1.995 -2.52,-1.995 -2.94,0 -4.125,2.235 -4.125,4.92 0,2.685 1.905,3.105 3.39,3.105 0.645,0 2.325,-0.255 2.46,-0.96 0.06,-0.315 0.075,-0.63 0.075,-0.675 0,-0.18 -0.045,-0.18 -0.105,-0.18 -0.21,0 -0.975,0.735 -2.325,0.735 z m 0.495,-5.865 c 0.855,0 1.35,0.48 1.35,1.035 0,1.545 -2.46,1.545 -2.895,1.545 h -1.065 c 0.195,-1.395 0.87,-2.58 2.61,-2.58 z"
         style="font-style:italic;font-variant:normal;font-weight:normal;font-stretch:normal;font-size:15px;line-height:100%;font-family:Asap;-inkscape-font-specification:Asap;fill:#d04545;fill-opacity:1"
         id="path991" />
      <path
         d="m 25.26137,934.24218 c -0.03,-0.195 -0.255,-0.255 -0.555,-0.255 h -0.165 c -0.3,0 -0.54,0.06 -0.615,0.255 l -2.175,5.97 -0.945,-5.985 c -0.03,-0.18 -0.285,-0.24 -0.585,-0.24 h -0.135 c -0.45,0 -0.66,0.105 -0.675,0.255 0,0.06 0.015,0.15 1.275,7.41 0.03,0.18 0.285,0.24 0.585,0.24 h 0.495 c 0.3,0 0.555,-0.06 0.615,-0.24 l 1.995,-5.46 0.795,5.46 c 0.03,0.18 0.27,0.24 0.57,0.24 h 0.495 c 0.3,0 0.54,-0.06 0.615,-0.24 l 2.775,-7.2 c 0.045,-0.105 0.06,-0.165 0.06,-0.24 0,-0.15 -0.21,-0.225 -0.63,-0.225 -0.3,0 -0.585,0.06 -0.645,0.24 l -2.19,5.985 z"
         style="font-style:italic;font-variant:normal;font-weight:normal;font-stretch:normal;font-size:15px;line-height:100%;font-family:Asap;-inkscape-font-specification:Asap;fill:#d04545;fill-opacity:1"
         id="path993" />
      <path
         d="m 36.586363,934.01718 0.135,-1.365 c 0.09,-0.9 0.435,-1.05 0.9,-1.05 0.45,0 0.615,0.105 0.675,0.105 0.18,0 0.39,-0.555 0.39,-0.72 0,-0.45 -0.81,-0.465 -1.065,-0.465 -0.795,0 -1.98,0.24 -2.145,1.98 l -0.15,1.515 h -0.6 c -0.36,0 -0.375,0.51 -0.375,0.675 0,0.24 0.045,0.405 0.255,0.405 h 0.6 l -0.675,6.465 c 0,0.225 0.15,0.33 0.57,0.33 h 0.06 c 0.39,0 0.6,-0.105 0.63,-0.33 l 0.675,-6.465 h 0.99 c 0.57,0 0.675,-0.735 0.675,-0.795 0,-0.21 -0.06,-0.285 -0.24,-0.285 z"
         style="font-style:italic;font-variant:normal;font-weight:normal;font-stretch:normal;font-size:15px;line-height:100%;font-family:Asap;-inkscape-font-specification:Asap;fill:#d04545;fill-opacity:1"
         id="path995" />
      <path
         d="m 40.096345,931.79718 c 0,0.27 0.24,0.33 0.63,0.33 h 0.18 c 0.42,0 0.57,-0.135 0.57,-0.33 l 0.09,-0.885 c 0,-0.24 -0.15,-0.33 -0.57,-0.33 h -0.18 c -0.39,0 -0.6,0.09 -0.63,0.33 z m 0.45,8.46 c 0,-0.45 0.6,-5.94 0.6,-5.94 0,-0.225 -0.15,-0.33 -0.57,-0.33 h -0.06 c -0.39,0 -0.6,0.09 -0.63,0.33 -0.03,0 -0.615,5.595 -0.615,6.21 0,0.99 0.495,1.425 1.335,1.425 0.27,0 0.825,-0.12 0.9,-0.495 0.06,-0.33 0.06,-0.54 0.06,-0.555 0,-0.09 -0.045,-0.105 -0.09,-0.105 -0.09,0 -0.225,0.075 -0.405,0.075 -0.24,0 -0.525,0 -0.525,-0.615 z"
         style="font-style:italic;font-variant:normal;font-weight:normal;font-stretch:normal;font-size:15px;line-height:100%;font-family:Asap;-inkscape-font-specification:Asap;fill:#d04545;fill-opacity:1"
         id="path997" />
      <path
         d="m 44.716336,940.25718 c 0,-0.45 0.96,-9.345 0.96,-9.345 0,-0.225 -0.15,-0.33 -0.57,-0.33 h -0.06 c -0.39,0 -0.6,0.09 -0.63,0.33 0,0.045 -0.975,8.895 -0.975,9.57 0,1.02 0.495,1.47 1.35,1.47 0.27,0 0.825,-0.12 0.9,-0.495 0.06,-0.33 0.06,-0.54 0.06,-0.555 0,-0.09 -0.045,-0.105 -0.09,-0.105 -0.09,0 -0.225,0.075 -0.405,0.075 -0.24,0 -0.54,0 -0.54,-0.615 z"
         style="font-style:italic;font-variant:normal;font-weight:normal;font-stretch:normal;font-size:15px;line-height:100%;font-family:Asap;-inkscape-font-specification:Asap;fill:#d04545;fill-opacity:1"
         id="path999" />
      <path
         d="m 50.941323,940.87218 c -1.32,0 -2.19,-0.495 -2.19,-2.16 v -0.15 c 0.315,0.06 0.735,0.105 1.29,0.105 2.04,0 4.05,-0.66 4.05,-2.745 0,-0.765 -0.63,-1.995 -2.52,-1.995 -2.94,0 -4.125,2.235 -4.125,4.92 0,2.685 1.905,3.105 3.39,3.105 0.645,0 2.325,-0.255 2.46,-0.96 0.06,-0.315 0.075,-0.63 0.075,-0.675 0,-0.18 -0.045,-0.18 -0.105,-0.18 -0.21,0 -0.975,0.735 -2.325,0.735 z m 0.495,-5.865 c 0.855,0 1.35,0.48 1.35,1.035 0,1.545 -2.46,1.545 -2.895,1.545 h -1.065 c 0.195,-1.395 0.87,-2.58 2.61,-2.58 z"
         style="font-style:italic;font-variant:normal;font-weight:normal;font-stretch:normal;font-size:15px;line-height:100%;font-family:Asap;-inkscape-font-specification:Asap;fill:#d04545;fill-opacity:1"
         id="path1001" />
      <path
         d="m 55.246314,941.09718 c 0,0.615 1.56,0.855 2.1,0.855 1.725,0 2.835,-1.08 2.835,-2.655 0,-2.505 -3.225,-1.845 -3.225,-3.285 0,-0.615 0.51,-1.005 1.425,-1.005 0.75,0 1.215,0.36 1.305,0.36 0.24,0 0.54,-0.555 0.54,-0.72 0,-0.54 -1.2,-0.72 -1.86,-0.72 -1.56,0 -2.73,0.9 -2.73,2.25 0,2.43 3.255,1.485 3.255,3.375 0,0.855 -0.705,1.32 -1.605,1.32 -1.095,0 -1.635,-0.585 -1.8,-0.585 -0.105,0 -0.24,0.21 -0.24,0.81 z"
         style="font-style:italic;font-variant:normal;font-weight:normal;font-stretch:normal;font-size:15px;line-height:100%;font-family:Asap;-inkscape-font-specification:Asap;fill:#d04545;fill-opacity:1"
         id="path1003" />
    </g>
    <g
       aria-label="workspace root"
       id="text5138"
       style="font-style:normal;font-variant:normal;font-weight:normal;font-stretch:normal;line-height:0%;font-family:Asap;-inkscape-font-specification:Asap;text-align:center;letter-spacing:0px;word-spacing:0px;text-anchor:middle;fill:#d04545;fill-opacity:1;stroke:none;stroke-width:1px;stroke-linecap:butt;stroke-linejoin:miter;stroke-opacity:1">
      <path
         d="m 138.90644,814.24218 c -0.03,-0.195 -0.255,-0.255 -0.555,-0.255 h -0.165 c -0.3,0 -0.54,0.06 -0.615,0.255 l -2.175,5.97 -0.945,-5.985 c -0.03,-0.18 -0.285,-0.24 -0.585,-0.24 h -0.135 c -0.45,0 -0.66,0.105 -0.675,0.255 0,0.06 0.015,0.15 1.275,7.41 0.03,0.18 0.285,0.24 0.585,0.24 h 0.495 c 0.3,0 0.555,-0.06 0.615,-0.24 l 1.995,-5.46 0.795,5.46 c 0.03,0.18 0.27,0.24 0.57,0.24 h 0.495 c 0.3,0 0.54,-0.06 0.615,-0.24 l 2.775,-7.2 c 0.045,-0.105 0.06,-0.165 0.06,-0.24 0,-0.15 -0.21,-0.225 -0.63,-0.225 -0.3,0 -0.585,0.06 -0.645,0.24 l -2.19,5.985 z"
         style="font-style:italic;font-variant:normal;font-weight:normal;font-stretch:normal;font-size:15px;line-height:100%;font-family:Asap;-inkscape-font-specification:Asap;fill:#d04545;fill-opacity:1"
         id="path1023" />
      <path
         d="m 144.17144,818.72718 c 0,2.1 1.065,3.225 3.105,3.225 2.4,0 3.87,-1.665 3.87,-4.77 0,-2.115 -1.05,-3.255 -3.015,-3.255 -2.82,0 -3.96,2.31 -3.96,4.8 z m 3.18,2.145 c -1.275,0 -1.89,-0.705 -1.89,-2.19 0,-2.25 0.855,-3.675 2.505,-3.675 1.275,0 1.875,0.705 1.875,2.205 0,2.385 -0.885,3.66 -2.49,3.66 z"
         style="font-style:italic;font-variant:normal;font-weight:normal;font-stretch:normal;font-size:15px;line-height:100%;font-family:Asap;-inkscape-font-specification:Asap;fill:#d04545;fill-opacity:1"
         id="path1025" />
      <path
         d="m 154.22141,821.56218 c 0,0 0.225,-2.1 0.42,-4.02 0.525,-1.905 1.35,-2.37 1.905,-2.37 0.39,0 0.465,0.165 0.585,0.165 0.18,0 0.435,-0.465 0.435,-0.84 0,-0.465 -0.45,-0.57 -0.75,-0.57 -0.765,0 -1.515,0.57 -1.995,1.5 0.015,-0.09 0.015,-0.15 0.015,-0.15 0,-1.08 -0.285,-1.125 -0.39,-1.125 -0.105,0 -0.84,0.015 -0.84,0.345 0,0.09 0.015,0.15 0.015,0.51 0,0.72 -0.66,6.57 -0.66,6.57 0,0.18 0.165,0.315 0.57,0.315 h 0.06 c 0.39,0 0.6,-0.12 0.63,-0.33 z"
         style="font-style:italic;font-variant:normal;font-weight:normal;font-stretch:normal;font-size:15px;line-height:100%;font-family:Asap;-inkscape-font-specification:Asap;fill:#d04545;fill-opacity:1"
         id="path1027" />
      <path
         d="m 160.0714,817.61718 h -0.06 l 0.705,-6.705 c 0,-0.21 -0.135,-0.33 -0.57,-0.33 h -0.06 c -0.435,0 -0.615,0.12 -0.63,0.33 l -1.125,10.65 c 0,0.21 0.135,0.33 0.57,0.33 h 0.06 c 0.42,0 0.6,-0.12 0.63,-0.33 l 0.36,-3.42 h 0.06 l 2.94,3.555 c 0.135,0.18 0.465,0.195 0.795,0.195 h 0.06 c 0.495,0 0.675,-0.045 0.675,-0.24 0,-0.045 -0.03,-0.105 -0.105,-0.21 l -3.015,-3.66 3.27,-3.3 c 0.12,-0.12 0.18,-0.24 0.18,-0.315 0,-0.09 -0.165,-0.18 -0.51,-0.18 h -0.06 c -0.33,0 -0.66,0.045 -0.81,0.21 z"
         style="font-style:italic;font-variant:normal;font-weight:normal;font-stretch:normal;font-size:15px;line-height:100%;font-family:Asap;-inkscape-font-specification:Asap;fill:#d04545;fill-opacity:1"
         id="path1029" />
      <path
         d="m 165.7414,821.09718 c 0,0.615 1.56,0.855 2.1,0.855 1.725,0 2.835,-1.08 2.835,-2.655 0,-2.505 -3.225,-1.845 -3.225,-3.285 0,-0.615 0.51,-1.005 1.425,-1.005 0.75,0 1.215,0.36 1.305,0.36 0.24,0 0.54,-0.555 0.54,-0.72 0,-0.54 -1.2,-0.72 -1.86,-0.72 -1.56,0 -2.73,0.9 -2.73,2.25 0,2.43 3.255,1.485 3.255,3.375 0,0.855 -0.705,1.32 -1.605,1.32 -1.095,0 -1.635,-0.585 -1.8,-0.585 -0.105,0 -0.24,0.21 -0.24,0.81 z"
         style="font-style:italic;font-variant:normal;font-weight:normal;font-stretch:normal;font-size:15px;line-height:100%;font-family:Asap;-inkscape-font-specification:Asap;fill:#d04545;fill-opacity:1"
         id="path1031" />
      <path
         d="m 171.86137,824.66718 c 0,0.18 0.165,0.315 0.57,0.315 h 0.06 c 0.375,0 0.6,-0.12 0.63,-0.33 l 0.36,-3.495 c 0.33,0.3 1.02,0.795 2.025,0.795 2.295,0 3.765,-2.025 3.765,-4.86 0,-2.55 -1.71,-3.165 -2.805,-3.165 -0.915,0 -1.8,0.435 -2.43,1.545 0.015,-0.09 0.015,-0.195 0.015,-0.195 0,-1.08 -0.285,-1.125 -0.39,-1.125 -0.105,0 -0.84,0.015 -0.84,0.345 0,0.09 0.015,0.15 0.015,0.51 0,0.72 -0.975,9.66 -0.975,9.66 z m 4.32,-9.645 c 0.99,0 1.785,0.51 1.785,2.16 0,1.83 -0.525,3.69 -2.64,3.69 -0.885,0 -1.5,-0.465 -1.74,-0.675 0.09,-0.945 0.18,-1.875 0.27,-2.685 0.63,-1.935 1.65,-2.49 2.325,-2.49 z"
         style="font-style:italic;font-variant:normal;font-weight:normal;font-stretch:normal;font-size:15px;line-height:100%;font-family:Asap;-inkscape-font-specification:Asap;fill:#d04545;fill-opacity:1"
         id="path1033" />
      <path
         d="m 186.84637,820.25718 c 0,-0.405 0.6,-5.955 0.6,-5.955 0,-0.195 -0.075,-0.315 -0.375,-0.315 h -0.09 c -0.42,0 -0.525,0.315 -0.675,0.75 -0.33,-0.315 -0.975,-0.81 -1.905,-0.81 -2.235,0 -3.675,1.995 -3.675,4.785 0,2.61 1.53,3.24 2.505,3.24 0.87,0 1.725,-0.45 2.34,-1.62 v 0.15 c 0,1.02 0.495,1.47 1.35,1.47 0.27,0 0.825,-0.12 0.9,-0.495 0.06,-0.33 0.06,-0.54 0.06,-0.555 0,-0.09 -0.045,-0.105 -0.09,-0.105 -0.09,0 -0.225,0.075 -0.405,0.075 -0.24,0 -0.54,0 -0.54,-0.615 z m -0.885,-3.9 c 0,0 -0.105,0.975 -0.195,1.965 -0.615,1.98 -1.59,2.535 -2.25,2.535 -0.81,0 -1.485,-0.525 -1.485,-2.235 0,-1.8 0.495,-3.6 2.49,-3.6 0.75,0 1.275,0.36 1.56,0.585 -0.045,0.24 -0.09,0.48 -0.12,0.75 z"
         style="font-style:italic;font-variant:normal;font-weight:normal;font-stretch:normal;font-size:15px;line-height:100%;font-family:Asap;-inkscape-font-specification:Asap;fill:#d04545;fill-opacity:1"
         id="path1035" />
      <path
         d="m 194.45134,820.58718 c 0,-0.165 -0.03,-0.18 -0.09,-0.18 -0.15,0 -0.795,0.465 -2.01,0.465 -1.41,0 -2.04,-0.66 -2.04,-2.16 0,-2.715 1.11,-3.705 2.505,-3.705 1.2,0 1.545,0.45 1.665,0.45 0.255,0 0.585,-0.555 0.585,-0.75 0,-0.315 -0.735,-0.78 -2.1,-0.78 -2.88,0 -3.96,2.295 -3.96,4.875 0,2.235 1.125,3.15 3.24,3.15 0.465,0 2.01,-0.09 2.13,-0.69 0.06,-0.3 0.075,-0.645 0.075,-0.675 z"
         style="font-style:italic;font-variant:normal;font-weight:normal;font-stretch:normal;font-size:15px;line-height:100%;font-family:Asap;-inkscape-font-specification:Asap;fill:#d04545;fill-opacity:1"
         id="path1037" />
      <path
         d="m 199.76132,820.87218 c -1.32,0 -2.19,-0.495 -2.19,-2.16 v -0.15 c 0.315,0.06 0.735,0.105 1.29,0.105 2.04,0 4.05,-0.66 4.05,-2.745 0,-0.765 -0.63,-1.995 -2.52,-1.995 -2.94,0 -4.125,2.235 -4.125,4.92 0,2.685 1.905,3.105 3.39,3.105 0.645,0 2.325,-0.255 2.46,-0.96 0.06,-0.315 0.075,-0.63 0.075,-0.675 0,-0.18 -0.045,-0.18 -0.105,-0.18 -0.21,0 -0.975,0.735 -2.325,0.735 z m 0.495,-5.865 c 0.855,0 1.35,0.48 1.35,1.035 0,1.545 -2.46,1.545 -2.895,1.545 h -1.065 c 0.195,-1.395 0.87,-2.58 2.61,-2.58 z"
         style="font-style:italic;font-variant:normal;font-weight:normal;font-stretch:normal;font-size:15px;line-height:100%;font-family:Asap;-inkscape-font-specification:Asap;fill:#d04545;fill-opacity:1"
         id="path1039" />
      <path
         d="m 209.45131,821.56218 c 0,0 0.225,-2.1 0.42,-4.02 0.525,-1.905 1.35,-2.37 1.905,-2.37 0.39,0 0.465,0.165 0.585,0.165 0.18,0 0.435,-0.465 0.435,-0.84 0,-0.465 -0.45,-0.57 -0.75,-0.57 -0.765,0 -1.515,0.57 -1.995,1.5 0.015,-0.09 0.015,-0.15 0.015,-0.15 0,-1.08 -0.285,-1.125 -0.39,-1.125 -0.105,0 -0.84,0.015 -0.84,0.345 0,0.09 0.015,0.15 0.015,0.51 0,0.72 -0.66,6.57 -0.66,6.57 0,0.18 0.165,0.315 0.57,0.315 h 0.06 c 0.39,0 0.6,-0.12 0.63,-0.33 z"
         style="font-style:italic;font-variant:normal;font-weight:normal;font-stretch:normal;font-size:15px;line-height:100%;font-family:Asap;-inkscape-font-specification:Asap;fill:#d04545;fill-opacity:1"
         id="path1041" />
      <path
         d="m 213.4263,818.72718 c 0,2.1 1.065,3.225 3.105,3.225 2.4,0 3.87,-1.665 3.87,-4.77 0,-2.115 -1.05,-3.255 -3.015,-3.255 -2.82,0 -3.96,2.31 -3.96,4.8 z m 3.18,2.145 c -1.275,0 -1.89,-0.705 -1.89,-2.19 0,-2.25 0.855,-3.675 2.505,-3.675 1.275,0 1.875,0.705 1.875,2.205 0,2.385 -0.885,3.66 -2.49,3.66 z"
         style="font-style:italic;font-variant:normal;font-weight:normal;font-stretch:normal;font-size:15px;line-height:100%;font-family:Asap;-inkscape-font-specification:Asap;fill:#d04545;fill-opacity:1"
         id="path1043" />
      <path
         d="m 221.96127,818.72718 c 0,2.1 1.065,3.225 3.105,3.225 2.4,0 3.87,-1.665 3.87,-4.77 0,-2.115 -1.05,-3.255 -3.015,-3.255 -2.82,0 -3.96,2.31 -3.96,4.8 z m 3.18,2.145 c -1.275,0 -1.89,-0.705 -1.89,-2.19 0,-2.25 0.855,-3.675 2.505,-3.675 1.275,0 1.875,0.705 1.875,2.205 0,2.385 -0.885,3.66 -2.49,3.66 z"
         style="font-style:italic;font-variant:normal;font-weight:normal;font-stretch:normal;font-size:15px;line-height:100%;font-family:Asap;-inkscape-font-specification:Asap;fill:#d04545;fill-opacity:1"
         id="path1045" />
      <path
         d="m 231.74125,814.01718 h -0.75 c -0.36,0 -0.375,0.51 -0.375,0.675 0,0.24 0.045,0.405 0.255,0.405 h 0.75 c 0,0 -0.525,4.755 -0.525,5.205 0,1.44 1.005,1.65 1.68,1.65 0.435,0 0.93,-0.12 1.02,-0.495 0.06,-0.255 0.075,-0.54 0.075,-0.555 0,-0.105 -0.06,-0.135 -0.105,-0.135 -0.105,0 -0.21,0.105 -0.675,0.105 -0.39,0 -0.72,-0.165 -0.72,-0.855 0,-0.3 0.51,-4.92 0.51,-4.92 h 0.96 c 0.57,0 0.675,-0.735 0.675,-0.795 0,-0.21 -0.06,-0.285 -0.24,-0.285 h -1.275 l 0.165,-1.575 c 0,-0.225 -0.15,-0.33 -0.57,-0.33 h -0.06 c -0.39,0 -0.585,0.09 -0.615,0.33 z"
         style="font-style:italic;font-variant:normal;font-weight:normal;font-stretch:normal;font-size:15px;line-height:100%;font-family:Asap;-inkscape-font-specification:Asap;fill:#d04545;fill-opacity:1"
         id="path1047" />
    </g>
    <path
       style="fill:none;fill-rule:evenodd;stroke:#d04545;stroke-width:1px;stroke-linecap:butt;stroke-linejoin:miter;stroke-opacity:1"
       d="m 117,844.36218 c 21.93655,-3.13226 34.04378,-9.54096 40,-18"
       id="path5142"
       inkscape:connector-curvature="0"
       sodipodi:nodetypes="cc" />
    <path
       style="fill:none;fill-rule:evenodd;stroke:#d04545;stroke-width:1px;stroke-linecap:butt;stroke-linejoin:miter;stroke-opacity:1"
       d="m 121.4418,839.21044 -4.16942,4.96751 5.46752,3.77297"
       id="path5144"
       inkscape:connector-curvature="0"
       sodipodi:nodetypes="ccc" />
    <g
       id="g928">
      <path
         sodipodi:nodetypes="ccccccc"
         inkscape:connector-curvature="0"
         id="path5111"
         d="m 83.5,884.8622 c 0,-0.5 0.5,-1 1,-1 h 5 c 0.61314,-0.0101 1,0.50686 1,1 v 2 c 0.27978,3.95911 -4.85679,3.8564 -6.99999,1 z"
         style="opacity:1;fill:url(#linearGradient5115);fill-opacity:1;stroke:#dcbf6a;stroke-width:1;stroke-linejoin:round;stroke-miterlimit:4;stroke-dasharray:none;stroke-opacity:1" />
      <path
         style="opacity:1;fill:url(#linearGradient5148);fill-opacity:1;stroke:#dcbf6a;stroke-width:1;stroke-linejoin:round;stroke-miterlimit:4;stroke-dasharray:none;stroke-opacity:1"
         d="m 83.5,887.86218 c 0,-0.5 0.5,-1 1,-1 l 16,2e-5 c 0.58677,0 1,0.42085 1,1 l 5e-5,10 c 0.0178,0.55171 -0.43366,1 -1.00005,1 h -16 c -0.50733,0 -1,-0.44383 -1,-1 z"
         id="path5146"
         inkscape:connector-curvature="0"
         sodipodi:nodetypes="ccccccccc" />
    </g>
    <g
       id="g934"
       transform="translate(0,52)">
      <path
         sodipodi:nodetypes="ccccccc"
         inkscape:connector-curvature="0"
         id="path930"
         d="m 111.5,976.8622 c 0,-0.5 0.5,-1 1,-1 h 5 c 0.61314,-0.0101 1,0.50686 1,1 v 2 c 0.27978,3.95911 -4.85679,3.8564 -6.99999,1 z"
         style="opacity:1;fill:url(#linearGradient940);fill-opacity:1;stroke:#dcbf6a;stroke-width:1;stroke-linejoin:round;stroke-miterlimit:4;stroke-dasharray:none;stroke-opacity:1" />
      <path
         style="opacity:1;fill:url(#linearGradient942);fill-opacity:1;stroke:#dcbf6a;stroke-width:1;stroke-linejoin:round;stroke-miterlimit:4;stroke-dasharray:none;stroke-opacity:1"
         d="m 111.5,979.86218 c 0,-0.5 0.5,-1 1,-1 l 16,2e-5 c 0.58677,0 1,0.42085 1,1 l 5e-5,10 c 0.0178,0.55171 -0.43366,1 -1.00005,1 h -16 c -0.50733,0 -1,-0.44383 -1,-1 z"
         id="path932"
         inkscape:connector-curvature="0"
         sodipodi:nodetypes="ccccccccc" />
    </g>
    <g
       aria-label="src"
       id="text938"
       style="font-style:normal;font-variant:normal;font-weight:normal;font-stretch:normal;line-height:0%;font-family:'Liberation Sans';-inkscape-font-specification:'Liberation Sans';letter-spacing:0px;word-spacing:0px;fill:#4d4d4d;fill-opacity:1;stroke:none;stroke-width:1px;stroke-linecap:butt;stroke-linejoin:miter;stroke-opacity:1">
      <path
         d="m 146.95801,1038.1722 q 0,1.1206 -0.84961,1.7286 -0.84229,0.6079 -2.36572,0.6079 -1.4795,0 -2.28516,-0.4834 -0.79834,-0.4908 -1.04004,-1.5235 l 1.16455,-0.227 q 0.16846,0.6372 0.6958,0.9375 0.52735,0.2929 1.46485,0.2929 1.00341,0 1.46484,-0.3076 0.46875,-0.3076 0.46875,-0.9228 0,-0.4688 -0.32227,-0.7617 -0.32226,-0.293 -1.04004,-0.4834 l -0.94482,-0.2491 q -1.13525,-0.2929 -1.61865,-0.5712 -0.47608,-0.2857 -0.74707,-0.6885 -0.271,-0.4029 -0.271,-0.9888 0,-1.084 0.76904,-1.6479 0.77637,-0.5713 2.25586,-0.5713 1.31104,0 2.08008,0.4614 0.77637,0.4614 0.98145,1.4795 l -1.18653,0.1465 q -0.10986,-0.5274 -0.59326,-0.8057 -0.47607,-0.2856 -1.28174,-0.2856 -0.89355,0 -1.31836,0.271 -0.4248,0.271 -0.4248,0.8203 0,0.3369 0.17578,0.5566 0.17578,0.2197 0.52002,0.3735 0.34424,0.1539 1.4502,0.4248 1.04736,0.2637 1.50879,0.4908 0.46142,0.2197 0.72509,0.4907 0.271,0.271 0.41748,0.6299 0.14649,0.3515 0.14649,0.8056 z"
         style="font-size:15px;line-height:1.25"
         id="path1114" />
      <path
         d="m 148.54004,1040.3622 v -6.0791 q 0,-0.835 -0.0439,-1.8457 h 1.24512 q 0.0586,1.3476 0.0586,1.6186 h 0.0293 q 0.31494,-1.018 0.7251,-1.3916 0.41016,-0.3735 1.15723,-0.3735 0.26367,0 0.53466,0.073 v 1.2085 q -0.26367,-0.073 -0.70312,-0.073 -0.82031,0 -1.25244,0.7104 -0.43213,0.7032 -0.43213,2.0215 v 4.1309 z"
         style="font-size:15px;line-height:1.25"
         id="path1116" />
      <path
         d="m 154.50928,1036.3632 q 0,1.582 0.49804,2.3437 0.49805,0.7617 1.50147,0.7617 0.70312,0 1.17187,-0.3808 0.47608,-0.3809 0.58594,-1.1719 l 1.33301,0.088 q -0.15381,1.1426 -0.97412,1.8237 -0.82031,0.6812 -2.08008,0.6812 -1.6626,0 -2.5415,-1.0474 -0.87159,-1.0547 -0.87159,-3.0688 0,-1.9996 0.87891,-3.0469 0.87891,-1.0547 2.51953,-1.0547 1.21582,0 2.01416,0.6299 0.80567,0.6299 1.01074,1.7358 l -1.35498,0.1026 q -0.10254,-0.6592 -0.52002,-1.0474 -0.41748,-0.3882 -1.18652,-0.3882 -1.04736,0 -1.51611,0.6958 -0.46875,0.6958 -0.46875,2.3438 z"
         style="font-size:15px;line-height:1.25"
         id="path1118" />
    </g>
  </g>
</svg>
